#!OML:ASF E:\Steps\Project 1\Capture day 1\Session 2\Subject.ASF
:FULLY-SPECIFIED
:DEGREES
102
root 16.4173 16.3347 20.7662 -155.617 -2.86255 176.735
lowerback -29.7558 -2.33703 -7.54468
upperback -0.808672 -1.02939 -0.491348
thorax 14.8652 -1.21195 3.08615
lowerneck -6.06609 -2.50445 -1.23263
upperneck 0.70139 -3.46852 4.74256
head 1.36608 -1.6901 1.59423
rclavicle -4.62174e-015 9.93923e-015
rhumerus -36.0051 -22.4274 -76.2286
rradius 26.728
rwrist 1.81819
rhand -9.07396 -410.709
rfingers 7.12502
rthumb 16.8752 280.004
lclavicle -4.62174e-015 9.93923e-015
lhumerus -30.1864 7.6157 79.5445
lradius 18.3686
lwrist -7.89194
lhand -21.834 -12.5567
lfingers 7.12502
lthumb 4.56906 17.3741
rfemur -21.0322 9.00632 18.267
rtibia 5.4924
rfoot -17.4968 -3.85722
rtoes -18.19
lfemur -22.7458 -11.4357 -22.2137
ltibia 10.1086
lfoot -8.16513 -2.0004
ltoes -33.9113
103
root 16.4166 16.3339 20.7637 -155.673 -2.82413 176.706
lowerback -29.8227 -2.33233 -7.52112
upperback -0.7339 -1.01022 -0.511028
thorax 14.9814 -1.20298 3.0583
lowerneck -5.92473 -2.43722 -1.36098
upperneck 0.579498 -3.37232 4.89817
head 1.3062 -1.64451 1.67131
rclavicle 8.89561e-015 1.5704e-014
rhumerus -35.8928 -22.1122 -76.4355
rradius 26.9499
rwrist 1.54927
rhand -9.02114 -410.995
rfingers 7.12502
rthumb 16.9261 279.723
lclavicle 8.89561e-015 1.5704e-014
lhumerus -30.0983 7.32622 79.6767
lradius 18.4893
lwrist -7.49529
lhand -21.8946 -12.4792
lfingers 7.12502
lthumb 4.51055 17.4528
rfemur -20.9493 9.08491 18.207
rtibia 5.46134
rfoot -17.4538 -3.83406
rtoes -17.9245
lfemur -22.6627 -11.519 -22.2542
ltibia 10.102
lfoot -8.18789 -1.91806
ltoes -33.3768
104
root 16.416 16.3354 20.7616 -155.785 -2.85681 176.753
lowerback -29.8592 -2.30102 -7.41044
upperback -0.63902 -0.98239 -0.531228
thorax 15.107 -1.1826 2.98773
lowerneck -5.72838 -2.31931 -1.58416
upperneck 0.343158 -3.20763 5.22919
head 1.2041 -1.56696 1.82458
rclavicle 7.10655e-015 -2.36554e-014
rhumerus -35.7505 -22.038 -76.5792
rradius 27.0956
rwrist 1.41183
rhand -8.95968 -411.61
rfingers 7.12502
rthumb 16.9853 279.113
lclavicle 7.10655e-015 -2.36554e-014
lhumerus -29.9636 6.99189 79.8111
lradius 18.5444
lwrist -7.1703
lhand -21.9418 -12.7597
lfingers 7.12502
lthumb 4.46499 17.1732
rfemur -20.8716 9.19164 18.2435
rtibia 5.56522
rfoot -17.4644 -3.86873
rtoes -17.4552
lfemur -22.5598 -11.6255 -22.1867
ltibia 10.1403
lfoot -8.20982 -1.82896
ltoes -33.4503
105
root 16.4193 16.3356 20.7619 -155.849 -2.93179 176.832
lowerback -29.668 -2.25497 -7.33566
upperback -0.72354 -0.974739 -0.519315
thorax 14.9194 -1.1689 2.96841
lowerneck -5.81889 -2.44105 -1.36102
upperneck 0.556855 -3.38928 5.13554
head 1.28723 -1.65322 1.74833
rclavicle 1.00883e-014 -2.66371e-014
rhumerus -35.8858 -22.1018 -76.5097
rradius 27.1962
rwrist 1.43641
rhand -8.99404 -412.029
rfingers 7.12502
rthumb 16.9522 278.691
lclavicle 1.00883e-014 -2.66371e-014
lhumerus -30.0229 6.81015 79.8734
lradius 18.5443
lwrist -7.13465
lhand -21.91 -13.3613
lfingers 7.12502
lthumb 4.49566 16.571
rfemur -20.9458 9.22818 18.3647
rtibia 5.8653
rfoot -17.6823 -3.9257
rtoes -17.0914
lfemur -22.521 -11.6146 -22.0678
ltibia 10.1577
lfoot -8.18496 -1.85574
ltoes -33.7312
106
root 16.4216 16.3349 20.7627 -155.869 -2.95076 176.871
lowerback -29.6188 -2.22216 -7.28523
upperback -0.725429 -0.95196 -0.510817
thorax 14.8927 -1.1538 2.9612
lowerneck -5.92682 -2.48792 -1.25574
upperneck 0.596676 -3.46051 5.08422
head 1.31749 -1.6877 1.70994
rclavicle 2.03754e-015 -1.51076e-014
rhumerus -35.8179 -21.9299 -76.5851
rradius 27.2901
rwrist 1.20934
rhand -9.10722 -412.283
rfingers 7.12502
rthumb 16.8432 278.428
lclavicle 2.03754e-015 -1.51076e-014
lhumerus -29.939 6.66938 79.992
lradius 18.6079
lwrist -7.03991
lhand -22.1383 -13.4201
lfingers 7.12502
lthumb 4.27526 16.5167
rfemur -21.003 9.24398 18.4283
rtibia 6.00942
rfoot -17.8424 -3.9241
rtoes -16.9917
lfemur -22.5182 -11.5391 -22.0269
ltibia 10.1587
lfoot -8.15913 -1.87888
ltoes -34.2823
107
root 16.4268 16.334 20.7681 -155.867 -3.09613 176.919
lowerback -29.5508 -2.26411 -7.25121
upperback -0.72308 -1.0277 -0.44895
thorax 14.8742 -1.18418 2.98235
lowerneck -6.08443 -2.51276 -1.2604
upperneck 0.704685 -3.49187 4.99096
head 1.37845 -1.70001 1.67822
rclavicle 5.86415e-015 3.00165e-014
rhumerus -35.6429 -21.5343 -76.7478
rradius 27.3713
rwrist 0.840316
rhand -8.94172 -412.128
rfingers 7.12502
rthumb 17.0025 278.596
lclavicle 5.86415e-015 3.00165e-014
lhumerus -29.8639 6.71927 80.1092
lradius 18.6937
lwrist -7.04864
lhand -22.4549 -12.8954
lfingers 7.12502
lthumb 3.96954 17.0474
rfemur -21.0003 9.24761 18.5488
rtibia 6.00245
rfoot -17.7899 -4.02227
rtoes -17.2581
lfemur -22.5987 -11.38 -21.9538
ltibia 10.2443
lfoot -8.13312 -2.1178
ltoes -34.2228
